<svg width="128" height="128" viewBox="0 0 128 128" fill="none" xmlns="http://www.w3.org/2000/svg">
<circle cx="64" cy="64" r="64" fill="#74D950"/>
<circle cx="37.12" cy="42.24" r="10.24" fill="#202020"/>
<circle cx="92.16" cy="42.24" r="10.24" fill="#202020"/>
<path d="M92.7841 85.8119C91.3693 90.6417 87.7397 94.946 82.5279 97.9748C77.3162 101.004 70.8526 102.565 64.2636 102.386C57.6746 102.208 51.3781 100.301 46.4712 96.9981C41.5643 93.6952 38.3582 89.2057 37.4117 84.312L43.3335 83.6677C44.0789 87.5216 46.6037 91.0571 50.4679 93.6581C54.3321 96.2591 59.2907 97.7608 64.4796 97.9013C69.6684 98.0419 74.7586 96.8124 78.8629 94.4273C82.9672 92.0421 85.8255 88.6524 86.9396 84.8489L92.7841 85.8119Z" fill="#202020"/>
</svg>
